<svg width="43" height="38" viewBox="0 0 43 38" fill="none" xmlns="http://www.w3.org/2000/svg">
<path d="M43 38H0V0H30.8341L43 38Z" fill="#0B573E"/>
<path d="M10.7741 1.95C11.7741 1.95 12.6241 2.09167 13.3241 2.375C14.0241 2.65833 14.7075 3.05833 15.3741 3.575C15.5575 3.725 15.7158 3.8 15.8491 3.8C16.1825 3.8 16.3991 3.3 16.4991 2.3H17.0741C17.0075 3.43333 16.9741 5.45 16.9741 8.35H16.3991C16.2491 7.11667 16.0491 6.175 15.7991 5.525C15.5491 4.875 15.1241 4.30833 14.5241 3.825C14.1075 3.425 13.6241 3.125 13.0741 2.925C12.5241 2.70833 11.9491 2.6 11.3491 2.6C9.66579 2.6 8.41579 3.425 7.59912 5.075C6.78245 6.70833 6.37412 8.75 6.37412 11.2C6.37412 13.6333 6.79912 15.6667 7.64912 17.3C8.49912 18.9333 9.76579 19.75 11.4491 19.75C12.0158 19.75 12.5741 19.65 13.1241 19.45C13.6908 19.2333 14.1658 18.925 14.5491 18.525C15.1658 18.0583 15.5908 17.475 15.8241 16.775C16.0741 16.075 16.2658 15.05 16.3991 13.7H16.9741C16.9741 16.7167 17.0075 18.8167 17.0741 20H16.4991C16.4491 19.4667 16.3741 19.0917 16.2741 18.875C16.1908 18.6417 16.0658 18.525 15.8991 18.525C15.7658 18.525 15.5908 18.5917 15.3741 18.725C14.6241 19.2583 13.9075 19.6667 13.2241 19.95C12.5408 20.2167 11.7158 20.35 10.7491 20.35C8.98246 20.35 7.43245 19.9917 6.09912 19.275C4.78245 18.5583 3.75745 17.525 3.02412 16.175C2.29079 14.8083 1.92412 13.1833 1.92412 11.3C1.92412 9.46667 2.29912 7.84167 3.04912 6.425C3.79912 5.00833 4.84079 3.90833 6.17412 3.125C7.52412 2.34167 9.05745 1.95 10.7741 1.95ZM33.7511 17.9C33.9677 18.45 34.2177 18.85 34.5011 19.1C34.7844 19.35 35.0594 19.4833 35.3261 19.5V20C34.3261 19.95 33.0594 19.925 31.5261 19.925C29.8261 19.925 28.5594 19.95 27.7261 20V19.5C28.3594 19.4667 28.8094 19.3917 29.0761 19.275C29.3427 19.1417 29.4761 18.9167 29.4761 18.6C29.4761 18.3 29.3761 17.9 29.1761 17.4L27.6761 13.3H22.2261L21.5761 15.025C21.1094 16.225 20.8761 17.15 20.8761 17.8C20.8761 18.4167 21.0594 18.85 21.4261 19.1C21.8094 19.3333 22.3677 19.4667 23.1011 19.5V20C21.9677 19.95 20.9344 19.925 20.0011 19.925C19.2344 19.925 18.6011 19.95 18.1011 20V19.5C18.9177 19.35 19.6344 18.475 20.2511 16.875L25.9511 2.25C26.1344 2.26667 26.4261 2.275 26.8261 2.275C27.2261 2.275 27.5094 2.26667 27.6761 2.25L33.7511 17.9ZM27.5011 12.8L25.0261 6.05L22.4261 12.8H27.5011Z" fill="white"/>
<path d="M13.4612 24.304C13.0872 24.3607 12.8095 24.457 12.6282 24.593C12.4582 24.729 12.3392 24.9443 12.2712 25.239C12.2145 25.5337 12.1862 25.97 12.1862 26.548V36.034L11.7782 36.017L11.3192 36.034L3.94118 26.684V33.212C3.94118 33.8807 3.97518 34.3737 4.04318 34.691C4.11118 34.997 4.25851 35.2237 4.48518 35.371C4.71184 35.507 5.08018 35.6033 5.59018 35.66V36C5.14818 35.966 4.53618 35.949 3.75418 35.949C3.13084 35.949 2.63784 35.966 2.27518 36V35.66C2.64918 35.6033 2.92118 35.507 3.09118 35.371C3.27251 35.235 3.39151 35.0197 3.44818 34.725C3.51618 34.4303 3.55018 33.994 3.55018 33.416V25.766C3.55018 25.3353 3.51618 25.0237 3.44818 24.831C3.39151 24.6383 3.27251 24.508 3.09118 24.44C2.92118 24.372 2.64918 24.3267 2.27518 24.304V23.964C2.63784 23.998 3.13084 24.015 3.75418 24.015C4.32084 24.015 4.80818 23.998 5.21618 23.964L11.7952 32.073V26.752C11.7952 26.0833 11.7612 25.596 11.6932 25.29C11.6252 24.9727 11.4778 24.746 11.2512 24.61C11.0245 24.4627 10.6562 24.3607 10.1462 24.304V23.964C10.5882 23.998 11.2002 24.015 11.9822 24.015C12.6168 24.015 13.1098 23.998 13.4612 23.964V24.304ZM18.5047 31.138V34.096C18.5047 34.5493 18.5501 34.8837 18.6407 35.099C18.7427 35.303 18.9127 35.439 19.1507 35.507C19.4001 35.575 19.7911 35.6147 20.3237 35.626V36C18.9297 35.966 17.8927 35.949 17.2127 35.949C16.6461 35.949 15.9321 35.9603 15.0707 35.983L14.5267 36V35.66C14.9007 35.6373 15.1727 35.592 15.3427 35.524C15.5241 35.456 15.6431 35.3257 15.6997 35.133C15.7677 34.9403 15.8017 34.6287 15.8017 34.198V25.766C15.8017 25.3353 15.7677 25.0237 15.6997 24.831C15.6431 24.6383 15.5241 24.508 15.3427 24.44C15.1727 24.372 14.9007 24.3267 14.5267 24.304V23.964C15.1047 23.998 15.9661 24.015 17.1107 24.015L18.9977 23.998C19.2244 23.9867 19.4851 23.981 19.7797 23.981C21.3097 23.981 22.4771 24.287 23.2817 24.899C24.0864 25.4997 24.4887 26.31 24.4887 27.33C24.4887 27.9533 24.3301 28.554 24.0127 29.132C23.6954 29.6987 23.1571 30.1747 22.3977 30.56C21.6497 30.9453 20.6524 31.138 19.4057 31.138H18.5047ZM19.5587 24.304C19.2527 24.304 19.0261 24.3437 18.8787 24.423C18.7427 24.5023 18.6464 24.644 18.5897 24.848C18.5331 25.052 18.5047 25.358 18.5047 25.766V30.798H19.2357C20.1537 30.798 20.7884 30.5033 21.1397 29.914C21.4911 29.3247 21.6667 28.5257 21.6667 27.517C21.6667 26.4177 21.5024 25.6073 21.1737 25.086C20.8564 24.5647 20.3181 24.304 19.5587 24.304ZM31.5884 23.726C32.7897 23.726 33.838 23.9697 34.7334 24.457C35.64 24.9443 36.3427 25.6527 36.8414 26.582C37.34 27.5 37.5894 28.5993 37.5894 29.88C37.5894 31.1267 37.3344 32.2317 36.8244 33.195C36.3144 34.1583 35.6004 34.9063 34.6824 35.439C33.7757 35.9717 32.7387 36.238 31.5714 36.238C30.37 36.238 29.316 35.9943 28.4094 35.507C27.514 35.0197 26.817 34.317 26.3184 33.399C25.8197 32.4697 25.5704 31.3647 25.5704 30.084C25.5704 28.8373 25.8254 27.7323 26.3354 26.769C26.8454 25.8057 27.5537 25.0577 28.4604 24.525C29.3784 23.9923 30.421 23.726 31.5884 23.726ZM31.5204 24.032C30.897 24.032 30.3474 24.287 29.8714 24.797C29.3954 25.2957 29.027 25.9983 28.7664 26.905C28.517 27.8117 28.3924 28.8487 28.3924 30.016C28.3924 31.1947 28.534 32.2317 28.8174 33.127C29.112 34.0223 29.503 34.7137 29.9904 35.201C30.489 35.6883 31.0387 35.932 31.6394 35.932C32.2627 35.932 32.8124 35.6827 33.2884 35.184C33.7644 34.674 34.127 33.9657 34.3764 33.059C34.637 32.1523 34.7674 31.1153 34.7674 29.948C34.7674 28.7693 34.62 27.7323 34.3254 26.837C34.042 25.9417 33.651 25.2503 33.1524 24.763C32.665 24.2757 32.121 24.032 31.5204 24.032Z" fill="white"/>
</svg>
