<svg width="242" height="38" viewBox="0 0 242 38" fill="none" xmlns="http://www.w3.org/2000/svg">
<path d="M65 38H0V0H46.6098L65 38Z" fill="#0B573E"/>
<path d="M78.208 8.344C78.0587 10.1573 77.984 11.7787 77.984 13.208C77.984 14.2107 78.016 15.0213 78.08 15.64H77.344C76.9173 13.2293 76.2773 11.5333 75.424 10.552C74.5707 9.57066 73.376 9.08 71.84 9.08H70.784C70.1227 9.08 69.6427 9.13333 69.344 9.24C69.0453 9.34667 68.8427 9.56 68.736 9.88C68.6293 10.1787 68.576 10.6693 68.576 11.352V19.416H69.696C70.8267 19.416 71.68 19 72.256 18.168C72.8533 17.336 73.2693 16.344 73.504 15.192H74.24C74.176 16.088 74.144 17.0907 74.144 18.2V19.736C74.144 20.824 74.208 22.3387 74.336 24.28H73.6C73.152 21.464 71.8507 20.056 69.696 20.056H68.576V27.416C68.576 28.2693 68.6613 28.8987 68.832 29.304C69.024 29.688 69.344 29.944 69.792 30.072C70.2613 30.2 70.9973 30.2747 72 30.296V31C69.376 30.936 67.424 30.904 66.144 30.904C65.0773 30.904 63.7333 30.9253 62.112 30.968L61.088 31V30.36C61.792 30.3173 62.304 30.232 62.624 30.104C62.9653 29.976 63.1893 29.7307 63.296 29.368C63.424 29.0053 63.488 28.4187 63.488 27.608V11.736C63.488 10.9253 63.424 10.3387 63.296 9.976C63.1893 9.61333 62.9653 9.368 62.624 9.24C62.304 9.112 61.792 9.02667 61.088 8.984V8.344C63.392 8.408 66.8693 8.44 71.52 8.44C74.656 8.44 76.8853 8.408 78.208 8.344ZM95.6415 27.512C95.6415 28.4933 95.7908 29.208 96.0895 29.656C96.4095 30.104 96.9428 30.328 97.6895 30.328V31C97.0282 30.936 96.3668 30.904 95.7055 30.904C93.8495 30.904 92.2922 31.0533 91.0335 31.352V28.472C90.0522 30.456 88.3348 31.448 85.8815 31.448C84.2815 31.448 83.1188 31.032 82.3935 30.2C82.0522 29.7947 81.7962 29.272 81.6255 28.632C81.4762 27.9707 81.4015 27.1067 81.4015 26.04V17.944C81.4015 16.9627 81.2415 16.248 80.9215 15.8C80.6228 15.352 80.1002 15.128 79.3535 15.128V14.456C80.0148 14.52 80.6762 14.552 81.3375 14.552C83.1935 14.552 84.7508 14.4027 86.0095 14.104V27.352C86.0095 28.248 86.1375 28.92 86.3935 29.368C86.6708 29.816 87.1828 30.04 87.9295 30.04C88.7828 30.04 89.5082 29.688 90.1055 28.984C90.7242 28.2587 91.0335 27.3733 91.0335 26.328V17.944C91.0335 16.9627 90.8735 16.248 90.5535 15.8C90.2548 15.352 89.7322 15.128 88.9855 15.128V14.456C89.6682 14.52 90.3295 14.552 90.9695 14.552C92.8255 14.552 94.3828 14.4027 95.6415 14.104V27.512ZM111.016 14.008C112.637 14.008 113.81 14.424 114.536 15.256C114.898 15.6613 115.154 16.184 115.304 16.824C115.453 17.464 115.528 18.328 115.528 19.416V28.024C115.528 28.8987 115.677 29.5067 115.976 29.848C116.296 30.168 116.829 30.328 117.576 30.328V31C115.442 30.9147 114.034 30.872 113.352 30.872C112.712 30.872 111.325 30.9147 109.192 31V30.328C109.832 30.328 110.28 30.168 110.536 29.848C110.792 29.5067 110.92 28.8987 110.92 28.024V18.072C110.92 17.1973 110.77 16.536 110.472 16.088C110.194 15.64 109.682 15.416 108.936 15.416C108.061 15.416 107.314 15.7787 106.696 16.504C106.077 17.208 105.768 18.0827 105.768 19.128V28.024C105.768 28.8987 105.896 29.5067 106.152 29.848C106.408 30.168 106.856 30.328 107.496 30.328V31C105.533 30.9147 104.21 30.872 103.528 30.872C102.888 30.872 101.416 30.9147 99.1118 31V30.328C99.8798 30.328 100.413 30.168 100.712 29.848C101.01 29.5067 101.16 28.8987 101.16 28.024V17.944C101.16 16.9627 101.01 16.248 100.712 15.8C100.413 15.352 99.8798 15.128 99.1118 15.128V14.456C99.7944 14.52 100.456 14.552 101.096 14.552C102.994 14.552 104.552 14.4027 105.768 14.104V16.984C106.728 15 108.477 14.008 111.016 14.008ZM134.512 27.48C134.512 28.4613 134.661 29.176 134.96 29.624C135.259 30.072 135.792 30.296 136.56 30.296V30.968C135.899 30.904 135.237 30.872 134.576 30.872C132.677 30.872 131.12 31.0213 129.904 31.32V28.568C129.179 30.488 127.792 31.448 125.744 31.448C123.739 31.448 122.139 30.7227 120.944 29.272C119.771 27.8 119.195 25.592 119.216 22.648C119.216 20.7707 119.515 19.192 120.112 17.912C120.731 16.6107 121.573 15.64 122.64 15C123.728 14.3387 124.965 14.008 126.352 14.008C127.909 14.008 129.093 14.4133 129.904 15.224V9.784C129.904 8.80267 129.744 8.088 129.424 7.64C129.125 7.192 128.603 6.968 127.856 6.968V6.296C128.539 6.36 129.2 6.392 129.84 6.392C131.696 6.392 133.253 6.24266 134.512 5.944V27.48ZM127.056 30.072C127.76 30.072 128.379 29.816 128.912 29.304C129.467 28.792 129.797 28.0987 129.904 27.224V16.024C129.371 15.2987 128.592 14.936 127.568 14.936C126.437 14.936 125.563 15.5867 124.944 16.888C124.325 18.1893 124.027 20.1307 124.048 22.712C124.027 25.3147 124.272 27.192 124.784 28.344C125.317 29.496 126.075 30.072 127.056 30.072ZM148.901 14.008C149.861 14.008 150.586 14.296 151.077 14.872C151.568 15.448 151.813 16.1413 151.813 16.952C151.813 17.7413 151.578 18.392 151.109 18.904C150.661 19.3947 150.064 19.64 149.317 19.64C148.592 19.64 148.016 19.4587 147.589 19.096C147.162 18.712 146.949 18.2107 146.949 17.592C146.949 16.568 147.418 15.736 148.357 15.096C148.272 15.0747 148.144 15.064 147.973 15.064C147.76 15.064 147.589 15.0853 147.461 15.128C146.65 15.256 145.957 15.7467 145.381 16.6C144.826 17.4533 144.549 18.328 144.549 19.224V27.704C144.549 28.6853 144.784 29.368 145.253 29.752C145.744 30.136 146.512 30.328 147.557 30.328V31C147.258 31 147.013 30.9893 146.821 30.968C144.645 30.904 143.194 30.872 142.469 30.872C141.893 30.872 140.581 30.904 138.533 30.968C138.362 30.9893 138.149 31 137.893 31V30.328C138.661 30.328 139.194 30.168 139.493 29.848C139.792 29.5067 139.941 28.8987 139.941 28.024V17.944C139.941 16.9627 139.792 16.248 139.493 15.8C139.194 15.352 138.661 15.128 137.893 15.128V14.456C138.576 14.52 139.237 14.552 139.877 14.552C141.776 14.552 143.333 14.4027 144.549 14.104V17.08C144.954 16.1627 145.541 15.4267 146.309 14.872C147.077 14.296 147.941 14.008 148.901 14.008ZM157.055 31.224C155.689 31.224 154.665 30.872 153.983 30.168C153.321 29.464 152.991 28.536 152.991 27.384C152.991 26.424 153.236 25.6347 153.727 25.016C154.239 24.376 154.847 23.8853 155.551 23.544C156.276 23.2027 157.193 22.84 158.303 22.456C159.476 22.0507 160.329 21.688 160.863 21.368C161.417 21.0267 161.695 20.568 161.695 19.992V17.496C161.695 16.6 161.481 15.9067 161.055 15.416C160.649 14.904 160.009 14.648 159.135 14.648C158.111 14.648 157.332 14.904 156.799 15.416C157.396 15.6293 157.855 15.9493 158.175 16.376C158.516 16.8027 158.687 17.304 158.687 17.88C158.687 18.6053 158.441 19.1813 157.951 19.608C157.46 20.0347 156.863 20.248 156.159 20.248C155.412 20.248 154.836 20.0133 154.431 19.544C154.025 19.0747 153.823 18.488 153.823 17.784C153.823 17.1867 153.961 16.6853 154.239 16.28C154.537 15.8533 154.985 15.4587 155.583 15.096C156.159 14.7547 156.863 14.488 157.695 14.296C158.548 14.104 159.476 14.008 160.479 14.008C161.524 14.008 162.431 14.1147 163.199 14.328C163.967 14.5413 164.607 14.904 165.119 15.416C165.588 15.8853 165.897 16.4613 166.047 17.144C166.217 17.8267 166.303 18.7547 166.303 19.928V28.632C166.303 29.144 166.345 29.5067 166.431 29.72C166.537 29.9333 166.729 30.04 167.007 30.04C167.327 30.04 167.711 29.8587 168.159 29.496L168.479 30.04C167.519 30.8293 166.345 31.224 164.959 31.224C163.785 31.224 162.964 30.9893 162.495 30.52C162.025 30.0507 161.78 29.4213 161.759 28.632C160.692 30.36 159.124 31.224 157.055 31.224ZM159.519 29.176C160.351 29.176 161.076 28.7387 161.695 27.864V21.304C161.439 21.7307 160.895 22.2 160.062 22.712C159.231 23.2453 158.601 23.7787 158.175 24.312C157.748 24.8453 157.535 25.6133 157.535 26.616C157.535 27.4907 157.716 28.1413 158.079 28.568C158.441 28.9733 158.921 29.176 159.519 29.176ZM173.553 6.2C174.449 6.2 175.153 6.424 175.665 6.872C176.198 7.29867 176.465 7.896 176.465 8.664C176.465 9.432 176.198 10.04 175.665 10.488C175.153 10.9147 174.449 11.128 173.553 11.128C172.657 11.128 171.942 10.9147 171.409 10.488C170.897 10.04 170.641 9.432 170.641 8.664C170.641 7.896 170.897 7.29867 171.409 6.872C171.942 6.424 172.657 6.2 173.553 6.2ZM176.049 28.024C176.049 28.8987 176.198 29.5067 176.497 29.848C176.817 30.168 177.35 30.328 178.097 30.328V31C175.964 30.9147 174.545 30.872 173.841 30.872C173.18 30.872 171.697 30.9147 169.393 31V30.328C170.161 30.328 170.694 30.168 170.993 29.848C171.292 29.5067 171.441 28.8987 171.441 28.024V17.944C171.441 16.9627 171.292 16.248 170.993 15.8C170.694 15.352 170.161 15.128 169.393 15.128V14.456C170.076 14.52 170.737 14.552 171.377 14.552C173.276 14.552 174.833 14.4027 176.049 14.104V28.024ZM185.823 14.008C186.633 14.008 187.38 14.1147 188.063 14.328C188.745 14.52 189.268 14.744 189.631 15C189.844 15.1493 190.036 15.224 190.207 15.224C190.399 15.224 190.559 15.128 190.687 14.936C190.836 14.7227 190.932 14.424 190.975 14.04H191.647C191.561 15.128 191.519 17.0053 191.519 19.672H190.847C190.655 18.264 190.228 17.0907 189.567 16.152C188.927 15.192 187.988 14.712 186.751 14.712C186.111 14.712 185.577 14.8933 185.151 15.256C184.745 15.6187 184.543 16.12 184.543 16.76C184.543 17.4853 184.788 18.1147 185.279 18.648C185.769 19.16 186.537 19.7893 187.583 20.536L188.511 21.208C189.812 22.1893 190.772 23.064 191.391 23.832C192.009 24.6 192.319 25.56 192.319 26.712C192.319 27.6507 192.041 28.4827 191.487 29.208C190.953 29.9333 190.228 30.488 189.311 30.872C188.393 31.256 187.38 31.448 186.271 31.448C185.097 31.448 184.095 31.224 183.263 30.776C182.58 30.4347 182.089 30.2107 181.791 30.104C181.577 30.04 181.385 30.1147 181.215 30.328C181.065 30.52 180.948 30.8187 180.863 31.224H180.191C180.276 30.008 180.319 27.8747 180.319 24.824H180.991C181.417 28.7493 182.857 30.712 185.311 30.712C185.929 30.712 186.452 30.5307 186.879 30.168C187.327 29.784 187.551 29.208 187.551 28.44C187.551 27.8427 187.412 27.3093 187.135 26.84C186.879 26.3707 186.548 25.9547 186.143 25.592C185.737 25.2293 185.129 24.728 184.319 24.088C183.359 23.32 182.623 22.7013 182.111 22.232C181.62 21.7627 181.193 21.208 180.831 20.568C180.489 19.928 180.319 19.2133 180.319 18.424C180.319 17.0587 180.852 15.9813 181.919 15.192C182.985 14.4027 184.287 14.008 185.823 14.008ZM198.428 6.2C199.324 6.2 200.028 6.424 200.54 6.872C201.073 7.29867 201.34 7.896 201.34 8.664C201.34 9.432 201.073 10.04 200.54 10.488C200.028 10.9147 199.324 11.128 198.428 11.128C197.532 11.128 196.817 10.9147 196.284 10.488C195.772 10.04 195.516 9.432 195.516 8.664C195.516 7.896 195.772 7.29867 196.284 6.872C196.817 6.424 197.532 6.2 198.428 6.2ZM200.924 28.024C200.924 28.8987 201.073 29.5067 201.372 29.848C201.692 30.168 202.225 30.328 202.972 30.328V31C200.839 30.9147 199.42 30.872 198.716 30.872C198.055 30.872 196.572 30.9147 194.268 31V30.328C195.036 30.328 195.569 30.168 195.868 29.848C196.167 29.5067 196.316 28.8987 196.316 28.024V17.944C196.316 16.9627 196.167 16.248 195.868 15.8C195.569 15.352 195.036 15.128 194.268 15.128V14.456C194.951 14.52 195.612 14.552 196.252 14.552C198.151 14.552 199.708 14.4027 200.924 14.104V28.024ZM216.266 14.008C217.887 14.008 219.06 14.424 219.786 15.256C220.148 15.6613 220.404 16.184 220.554 16.824C220.703 17.464 220.778 18.328 220.778 19.416V28.024C220.778 28.8987 220.927 29.5067 221.226 29.848C221.546 30.168 222.079 30.328 222.826 30.328V31C220.692 30.9147 219.284 30.872 218.602 30.872C217.962 30.872 216.575 30.9147 214.442 31V30.328C215.082 30.328 215.53 30.168 215.786 29.848C216.042 29.5067 216.17 28.8987 216.17 28.024V18.072C216.17 17.1973 216.02 16.536 215.722 16.088C215.444 15.64 214.932 15.416 214.186 15.416C213.311 15.416 212.564 15.7787 211.946 16.504C211.327 17.208 211.018 18.0827 211.018 19.128V28.024C211.018 28.8987 211.146 29.5067 211.402 29.848C211.658 30.168 212.106 30.328 212.746 30.328V31C210.783 30.9147 209.46 30.872 208.778 30.872C208.138 30.872 206.666 30.9147 204.362 31V30.328C205.13 30.328 205.663 30.168 205.962 29.848C206.26 29.5067 206.41 28.8987 206.41 28.024V17.944C206.41 16.9627 206.26 16.248 205.962 15.8C205.663 15.352 205.13 15.128 204.362 15.128V14.456C205.044 14.52 205.706 14.552 206.346 14.552C208.244 14.552 209.802 14.4027 211.018 14.104V16.984C211.978 15 213.727 14.008 216.266 14.008ZM238.967 17.528C238.541 17.528 238.178 17.3893 237.879 17.112C237.581 16.8133 237.431 16.3973 237.431 15.864C237.431 15.352 237.559 14.8293 237.815 14.296C237.303 14.5093 236.877 14.7547 236.535 15.032C236.215 15.288 235.938 15.6187 235.703 16.024C236.365 16.8133 236.695 17.8373 236.695 19.096C236.695 20.7813 236.109 22.0507 234.935 22.904C233.783 23.7573 232.247 24.184 230.327 24.184H229.751C228.877 24.696 228.439 25.2613 228.439 25.88C228.439 26.5627 228.866 26.904 229.719 26.904H233.207C235.085 26.904 236.578 27.256 237.687 27.96C238.818 28.6427 239.383 29.6987 239.383 31.128C239.383 32.216 239.031 33.1973 238.327 34.072C237.645 34.968 236.599 35.6827 235.191 36.216C233.783 36.7493 232.055 37.016 230.007 37.016C227.938 37.016 226.274 36.7493 225.015 36.216C223.778 35.704 223.159 34.9573 223.159 33.976C223.159 33.3147 223.458 32.7173 224.055 32.184C224.653 31.672 225.538 31.2667 226.711 30.968L226.999 31.48C226.231 32.12 225.847 32.856 225.847 33.688C225.847 34.584 226.253 35.2667 227.063 35.736C227.874 36.2267 228.994 36.472 230.423 36.472C231.917 36.472 233.122 36.1733 234.039 35.576C234.978 34.9787 235.447 34.136 235.447 33.048C235.447 32.344 235.181 31.7893 234.647 31.384C234.135 30.9787 233.229 30.776 231.927 30.776H229.943C228.578 30.776 227.511 30.552 226.743 30.104C225.975 29.6347 225.591 28.9307 225.591 27.992C225.591 27.2027 225.869 26.4987 226.423 25.88C226.978 25.2613 227.821 24.664 228.951 24.088C227.415 23.896 226.199 23.384 225.303 22.552C224.407 21.72 223.959 20.568 223.959 19.096C223.959 17.4107 224.535 16.1413 225.687 15.288C226.861 14.4347 228.407 14.008 230.327 14.008C232.461 14.008 234.093 14.5093 235.223 15.512C235.629 14.936 236.13 14.4773 236.727 14.136C237.325 13.7947 237.933 13.624 238.551 13.624C239.191 13.624 239.693 13.816 240.055 14.2C240.439 14.5627 240.631 15.0427 240.631 15.64C240.631 16.2373 240.461 16.7067 240.119 17.048C239.799 17.368 239.415 17.528 238.967 17.528ZM230.327 23.608C230.925 23.608 231.373 23.2667 231.671 22.584C231.991 21.9013 232.151 20.7387 232.151 19.096C232.151 17.4533 231.991 16.2907 231.671 15.608C231.373 14.9253 230.925 14.584 230.327 14.584C229.73 14.584 229.271 14.9253 228.951 15.608C228.653 16.2907 228.503 17.4533 228.503 19.096C228.503 20.7387 228.653 21.9013 228.951 22.584C229.271 23.2667 229.73 23.608 230.327 23.608Z" fill="#0B573E"/>
<path d="M18.2509 8.896C19.5309 8.896 20.6189 9.07733 21.5149 9.44C22.4109 9.80267 23.2855 10.3147 24.1389 10.976C24.3735 11.168 24.5762 11.264 24.7469 11.264C25.1735 11.264 25.4509 10.624 25.5789 9.344H26.3149C26.2295 10.7947 26.1869 13.376 26.1869 17.088H25.4509C25.2589 15.5093 25.0029 14.304 24.6829 13.472C24.3629 12.64 23.8189 11.9147 23.0509 11.296C22.5175 10.784 21.8989 10.4 21.1949 10.144C20.4909 9.86667 19.7549 9.728 18.9869 9.728C16.8322 9.728 15.2322 10.784 14.1869 12.896C13.1415 14.9867 12.6189 17.6 12.6189 20.736C12.6189 23.8507 13.1629 26.4533 14.2509 28.544C15.3389 30.6347 16.9602 31.68 19.1149 31.68C19.8402 31.68 20.5549 31.552 21.2589 31.296C21.9842 31.0187 22.5922 30.624 23.0829 30.112C23.8722 29.5147 24.4162 28.768 24.7149 27.872C25.0349 26.976 25.2802 25.664 25.4509 23.936H26.1869C26.1869 27.7973 26.2295 30.4853 26.3149 32H25.5789C25.5149 31.3173 25.4189 30.8373 25.2909 30.56C25.1842 30.2613 25.0242 30.112 24.8109 30.112C24.6402 30.112 24.4162 30.1973 24.1389 30.368C23.1789 31.0507 22.2615 31.5733 21.3869 31.936C20.5122 32.2773 19.4562 32.448 18.2189 32.448C15.9575 32.448 13.9735 31.9893 12.2669 31.072C10.5815 30.1547 9.26954 28.832 8.33088 27.104C7.39221 25.3547 6.92288 23.2747 6.92288 20.864C6.92288 18.5173 7.40288 16.4373 8.36288 14.624C9.32288 12.8107 10.6562 11.4027 12.3629 10.4C14.0909 9.39733 16.0535 8.896 18.2509 8.896ZM47.6614 29.312C47.9387 30.016 48.2587 30.528 48.6214 30.848C48.984 31.168 49.336 31.3387 49.6774 31.36V32C48.3974 31.936 46.776 31.904 44.8134 31.904C42.6374 31.904 41.016 31.936 39.9494 32V31.36C40.76 31.3173 41.336 31.2213 41.6774 31.072C42.0187 30.9013 42.1894 30.6133 42.1894 30.208C42.1894 29.824 42.0614 29.312 41.8054 28.672L39.8854 23.424H32.9094L32.0774 25.632C31.48 27.168 31.1814 28.352 31.1814 29.184C31.1814 29.9733 31.416 30.528 31.8854 30.848C32.376 31.1467 33.0907 31.3173 34.0294 31.36V32C32.5787 31.936 31.256 31.904 30.0614 31.904C29.08 31.904 28.2694 31.936 27.6294 32V31.36C28.6747 31.168 29.592 30.048 30.3814 28L37.6774 9.28C37.912 9.30133 38.2854 9.312 38.7974 9.312C39.3094 9.312 39.672 9.30133 39.8854 9.28L47.6614 29.312ZM39.6614 22.784L36.4934 14.144L33.1654 22.784H39.6614Z" fill="white"/>
</svg>
